{"title":"Beneath Hill 60 2010 720p BRRip x264 Feel-Free","uid":6129534,"size":2320191161,"categoryP":"video","categoryS":"hd___movies","magnet":"?xt=urn:btih:6c9e4b2f51fc8e5e8518dcc329ba2f296bc627d6&amp;dn=Beneath+Hill+60+2010+720p+BRRip+x264+Feel-Free&amp;tr=udp%3A%2F%2Ftracker.openbittorrent.com%3A80&amp;tr=udp%3A%2F%2Fopen.demonii.com%3A1337&amp;tr=udp%3A%2F%2Ftracker.coppersurfer.tk%3A6969&amp;tr=udp%3A%2F%2Fexodus.desync.com%3A6969","seeders":1,"leechers":0,"uploader":"neon","files":-1,"time":1296069787,"description":"Genre:Drama | History | War\nLanguage:English\n &lt;a href=&quot; http://www.imdb.com/title/tt1418646/&quot; rel=&quot;nofollow&quot; target=&quot;_NEW&quot;&gt; http://www.imdb.com/title/tt1418646/&lt;/a&gt;\nSource:BluRay DD5.1 x264-EbP\nSubtitles:Romana\n\n\nFormat : MPEG-4\nFormat profile : Base Media\nCodec ID : isom\nFile size : 2.16 GiB\nDuration : 2h 2mn\nOverall bit rate : 2 524 Kbps\nMovie name : Beneath Hill 60 2010 720p BRRip x264 Feel-Free\n\n\nVideo\nFormat settings, CABAC : Yes\nFormat settings, ReFrames : 4 frames\nCodec ID : avc1\nCodec ID/Info : Advanced Video Coding\nDuration : 2h 2mn\nBit rate mode : Variable\nBit rate : 2 200 Kbps\nWidth : 1 280 pixels\nHeight : 534 pixels\nDisplay aspect ratio : 2.35:1\nFrame rate mode : Constant\nFrame rate : 23.976 fps\nColor space : YUV\nChroma subsampling : 4:2:0\nBit depth : 8 bits\nScan type : Progressive\nBits/(Pixel*Frame) : 0.134\nStream size : 1.82 GiB (85%)\nWriting library : x264\n\nAudio\nID : 2\nFormat : AAC\nFormat/Info : Advanced Audio Codec\nFormat version : Version 4\nFormat profile : LC\nCodec ID : 40\nDuration : 2h 2mn\nBit rate mode : Variable\nBit rate : 384 Kbps\nChannel(s) : 6 channels\nChannel positions : Front: L C R, Side: L R, LFE\nSampling rate : 48.0 KHz\nStream size : 336 MiB (15%)\n\n\n\nPlot:\nThe extraordinary true story of Oliver Woodward. It's 1916 and Woodward must tear himself from his new young love to go to the mud and carnage of the Western Front\n &lt;a href=&quot;\nhttp://rapidhdd.com/images/680572vlcsnap-00001.png&quot; rel=&quot;nofollow&quot; target=&quot;_NEW&quot;&gt;\nhttp://rapidhdd.com/images/680572vlcsnap-00001.png&lt;/a&gt; &lt;a href=&quot;\nhttp://www.rapidhdd.com/images/308153vlcsnap-00004.png&quot; rel=&quot;nofollow&quot; target=&quot;_NEW&quot;&gt;\nhttp://www.rapidhdd.com/images/308153vlcsnap-00004.png&lt;/a&gt; &lt;a href=&quot;\nhttp://www.rapidhdd.com/images/990320vlcsnap-00002.png&quot; rel=&quot;nofollow&quot; target=&quot;_NEW&quot;&gt;\nhttp://www.rapidhdd.com/images/990320vlcsnap-00002.png&lt;/a&gt; &lt;a href=&quot;\nhttp://www.rapidhdd.com/images/117976vlcsnap-00005.png&quot; rel=&quot;nofollow&quot; target=&quot;_NEW&quot;&gt;\nhttp://www.rapidhdd.com/images/117976vlcsnap-00005.png&lt;/a&gt;","torrent":{"xt":"urn:btih:6c9e4b2f51fc8e5e8518dcc329ba2f296bc627d6","amp;dn":"Beneath+Hill+60+2010+720p+BRRip+x264+Feel-Free","amp;tr":["udp%3A%2F%2Ftracker.openbittorrent.com%3A80","udp%3A%2F%2Fopen.demonii.com%3A1337","udp%3A%2F%2Ftracker.coppersurfer.tk%3A6969","udp%3A%2F%2Fexodus.desync.com%3A6969"],"infoHash":"6c9e4b2f51fc8e5e8518dcc329ba2f296bc627d6","infoHashBuffer":{"type":"Buffer","data":[108,158,75,47,81,252,142,94,133,24,220,195,41,186,47,41,107,198,39,214]},"announce":[],"urlList":[]}}